<svg width="128" height="128" viewBox="0 0 128 128" fill="none" xmlns="http://www.w3.org/2000/svg">
<rect width="128" height="128" fill="white"/>
<path d="M36.3333 64C36.3333 61.171 37.4571 58.4579 39.4575 56.4575C41.4579 54.4572 44.171 53.3334 47 53.3334C49.829 53.3334 52.5421 54.4572 54.5425 56.4575C56.5429 58.4579 57.6667 61.171 57.6667 64C57.6667 66.829 56.5429 69.5421 54.5425 71.5425C52.5421 73.5429 49.829 74.6667 47 74.6667C44.171 74.6667 41.4579 73.5429 39.4575 71.5425C37.4571 69.5421 36.3333 66.829 36.3333 64V64Z" stroke="black" stroke-width="3.92982"/>
<path d="M15 85.3333C15 82.5044 16.1238 79.7913 18.1242 77.7909C20.1246 75.7905 22.8377 74.6667 25.6667 74.6667H36.3333V85.3333C36.3333 88.1623 35.2095 90.8754 33.2091 92.8758C31.2088 94.8762 28.4956 96 25.6667 96C22.8377 96 20.1246 94.8762 18.1242 92.8758C16.1238 90.8754 15 88.1623 15 85.3333Z" stroke="black" stroke-width="3.92982"/>
<path d="M36.3333 32V53.3333H47C49.829 53.3333 52.5421 52.2095 54.5425 50.2092C56.5429 48.2088 57.6667 45.4957 57.6667 42.6667C57.6667 39.8377 56.5429 37.1246 54.5425 35.1242C52.5421 33.1238 49.829 32 47 32H36.3333Z" stroke="black" stroke-width="3.92982"/>
<path d="M15 42.6667C15 45.4956 16.1238 48.2088 18.1242 50.2091C20.1246 52.2095 22.8377 53.3333 25.6667 53.3333H36.3334V32H25.6667C22.8377 32 20.1246 33.1238 18.1242 35.1242C16.1238 37.1246 15 39.8377 15 42.6667Z" stroke="black" stroke-width="3.92982"/>
<path d="M15 64C15 66.829 16.1238 69.5421 18.1242 71.5425C20.1246 73.5429 22.8377 74.6667 25.6667 74.6667H36.3333V53.3334H25.6667C22.8377 53.3334 20.1246 54.4572 18.1242 56.4575C16.1238 58.4579 15 61.171 15 64Z" stroke="black" stroke-width="3.92982"/>
<path d="M64 64.9412L92 96L120 64.9412H101.333V32H82.6667V64.9412H64Z" fill="black"/>
</svg>
